999
dxfrw 0.5.10
0
SECTION
2
HEADER
9
$ACADVER
1
AC1021
9
$HANDSEED
5
20000
9
$DWGCODEPAGE
3
ANSI_1252
9
$INSBASE
10
0
20
0
30
0
9
$EXTMIN
10
1
20
1
30
0
9
$EXTMAX
10
185
20
225.895801178
30
0
9
$LIMMIN
10
0
20
0
9
$LIMMAX
10
420
20
297
9
$ORTHOMODE
70
0
9
$LTSCALE
40
1
9
$TEXTSTYLE
7
STANDARD
9
$CLAYER
8
0
9
$DIMASZ
40
2.5
9
$DIMLFAC
40
1
9
$DIMSCALE
40
1
9
$DIMEXO
40
0.625
9
$DIMEXE
40
1.25
9
$DIMTXT
40
2.5
9
$DIMTSZ
40
0
9
$DIMAUNIT
70
0
9
$DIMADEC
70
0
9
$DIMLUNIT
70
2
9
$DIMSTYLE
2
Standard
9
$DIMGAP
40
0.625
9
$DIMTIH
70
0
9
$LUNITS
70
2
9
$LUPREC
70
4
9
$AUNITS
70
0
9
$AUPREC
70
2
9
$SPLINESEGS
70
8
9
$GRIDMODE
70
1
9
$SNAPSTYLE
70
0
9
$PINSBASE
10
0
20
0
30
0
9
$PLIMMIN
10
0
20
0
9
$PLIMMAX
10
21
20
29.7
9
$INSUNITS
70
4
9
$PSVPSCALE
40
1
0
ENDSEC
0
SECTION
2
CLASSES
0
ENDSEC
0
SECTION
2
TABLES
0
TABLE
2
VPORT
5
8
330
0
100
AcDbSymbolTable
70
1
0
VPORT
5
31
330
2
100
AcDbSymbolTableRecord
100
AcDbViewportTableRecord
2
*ACTIVE
70
0
10
0
20
0
11
1
21
1
12
142.023238826
22
114.450397449
13
0
23
0
14
10
24
10
15
10
25
10
16
0
26
0
36
1
17
0
27
0
37
0
40
231.057329977
41
1.65333333333
42
50
43
0
44
0
50
0
51
0
71
0
72
100
73
1
74
3
75
0
76
1
77
0
78
0
281
0
65
1
110
0
120
0
130
0
111
1
121
0
131
0
112
0
122
1
132
0
79
0
146
0
348
10020
60
7
61
5
292
1
282
1
141
0
142
0
63
250
421
3358443
0
ENDTAB
0
TABLE
2
LTYPE
5
5
330
0
100
AcDbSymbolTable
70
4
0
LTYPE
5
14
330
5
100
AcDbSymbolTableRecord
100
AcDbLinetypeTableRecord
2
ByBlock
70
0
3

72
65
73
0
40
0
0
LTYPE
5
15
330
5
100
AcDbSymbolTableRecord
100
AcDbLinetypeTableRecord
2
ByLayer
70
0
3

72
65
73
0
40
0
0
LTYPE
5
16
330
5
100
AcDbSymbolTableRecord
100
AcDbLinetypeTableRecord
2
Continuous
70
0
3
Solid line
72
65
73
0
40
0
0
LTYPE
5
32
330
5
100
AcDbSymbolTableRecord
100
AcDbLinetypeTableRecord
2
DOT
70
0
3
Dot . . . . . . . . . . . . . . . . . . . . . .
72
65
73
2
40
6.35
49
0
74
0
49
-6.35
74
0
0
LTYPE
5
33
330
5
100
AcDbSymbolTableRecord
100
AcDbLinetypeTableRecord
2
DOT2
70
0
3
Dot (.5x) .....................................
72
65
73
2
40
3.175
49
0
74
0
49
-3.175
74
0
0
LTYPE
5
34
330
5
100
AcDbSymbolTableRecord
100
AcDbLinetypeTableRecord
2
DOTX2
70
0
3
Dot (2x) .  .  .  .  .  .  .  .  .  .  .  .  .
72
65
73
2
40
12.7
49
0
74
0
49
-12.7
74
0
0
LTYPE
5
35
330
5
100
AcDbSymbolTableRecord
100
AcDbLinetypeTableRecord
2
DASHED
70
0
3
Dot . . . . . . . . . . . . . . . . . . . . . .
72
65
73
2
40
19.05
49
12.7
74
0
49
-6.35
74
0
0
LTYPE
5
36
330
5
100
AcDbSymbolTableRecord
100
AcDbLinetypeTableRecord
2
DASHED2
70
0
3
Dashed (.5x) _ _ _ _ _ _ _ _ _ _ _ _ _ _ _ _ _
72
65
73
2
40
9.525
49
6.35
74
0
49
-3.175
74
0
0
LTYPE
5
37
330
5
100
AcDbSymbolTableRecord
100
AcDbLinetypeTableRecord
2
DASHEDX2
70
0
3
Dashed (2x) ____  ____  ____  ____  ____  ___
72
65
73
2
40
38.1
49
25.4
74
0
49
-12.7
74
0
0
LTYPE
5
38
330
5
100
AcDbSymbolTableRecord
100
AcDbLinetypeTableRecord
2
DASHDOT
70
0
3
Dash dot __ . __ . __ . __ . __ . __ . __ . __
72
65
73
4
40
25.4
49
12.7
74
0
49
-6.35
74
0
49
0
74
0
49
-6.35
74
0
0
LTYPE
5
39
330
5
100
AcDbSymbolTableRecord
100
AcDbLinetypeTableRecord
2
DASHDOT2
70
0
3
Dash dot (.5x) _._._._._._._._._._._._._._._.
72
65
73
4
40
12.7
49
6.35
74
0
49
-3.175
74
0
49
0
74
0
49
-3.175
74
0
0
LTYPE
5
3A
330
5
100
AcDbSymbolTableRecord
100
AcDbLinetypeTableRecord
2
DASHDOTX2
70
0
3
Dash dot (2x) ____  .  ____  .  ____  .  ___
72
65
73
4
40
50.8
49
25.4
74
0
49
-12.7
74
0
49
0
74
0
49
-12.7
74
0
0
LTYPE
5
3B
330
5
100
AcDbSymbolTableRecord
100
AcDbLinetypeTableRecord
2
DIVIDE
70
0
3
Divide ____ . . ____ . . ____ . . ____ . . ____
72
65
73
6
40
31.75
49
12.7
74
0
49
-6.35
74
0
49
0
74
0
49
-6.35
74
0
49
0
74
0
49
-6.35
74
0
0
LTYPE
5
3C
330
5
100
AcDbSymbolTableRecord
100
AcDbLinetypeTableRecord
2
DIVIDE2
70
0
3
Divide (.5x) __..__..__..__..__..__..__..__.._
72
65
73
6
40
15.875
49
6.35
74
0
49
-3.175
74
0
49
0
74
0
49
-3.175
74
0
49
0
74
0
49
-3.175
74
0
0
LTYPE
5
3D
330
5
100
AcDbSymbolTableRecord
100
AcDbLinetypeTableRecord
2
DIVIDEX2
70
0
3
Divide (2x) ________  .  .  ________  .  .  _
72
65
73
6
40
63.5
49
25.4
74
0
49
-12.7
74
0
49
0
74
0
49
-12.7
74
0
49
0
74
0
49
-12.7
74
0
0
LTYPE
5
3E
330
5
100
AcDbSymbolTableRecord
100
AcDbLinetypeTableRecord
2
BORDER
70
0
3
Border __ __ . __ __ . __ __ . __ __ . __ __ .
72
65
73
6
40
44.45
49
12.7
74
0
49
-6.35
74
0
49
12.7
74
0
49
-6.35
74
0
49
0
74
0
49
-6.35
74
0
0
LTYPE
5
3F
330
5
100
AcDbSymbolTableRecord
100
AcDbLinetypeTableRecord
2
BORDER2
70
0
3
Border (.5x) __.__.__.__.__.__.__.__.__.__.__.
72
65
73
6
40
22.225
49
6.35
74
0
49
-3.175
74
0
49
6.35
74
0
49
-3.175
74
0
49
0
74
0
49
-3.175
74
0
0
LTYPE
5
40
330
5
100
AcDbSymbolTableRecord
100
AcDbLinetypeTableRecord
2
BORDERX2
70
0
3
Border (2x) ____  ____  .  ____  ____  .  ___
72
65
73
6
40
88.9
49
25.4
74
0
49
-12.7
74
0
49
25.4
74
0
49
-12.7
74
0
49
0
74
0
49
-12.7
74
0
0
LTYPE
5
41
330
5
100
AcDbSymbolTableRecord
100
AcDbLinetypeTableRecord
2
CENTER
70
0
3
Center ____ _ ____ _ ____ _ ____ _ ____ _ ____
72
65
73
4
40
50.8
49
31.75
74
0
49
-6.35
74
0
49
6.35
74
0
49
-6.35
74
0
0
LTYPE
5
42
330
5
100
AcDbSymbolTableRecord
100
AcDbLinetypeTableRecord
2
CENTER2
70
0
3
Center (.5x) ___ _ ___ _ ___ _ ___ _ ___ _ ___
72
65
73
4
40
28.575
49
19.05
74
0
49
-3.175
74
0
49
3.175
74
0
49
-3.175
74
0
0
LTYPE
5
43
330
5
100
AcDbSymbolTableRecord
100
AcDbLinetypeTableRecord
2
CENTERX2
70
0
3
Center (2x) ________  __  ________  __  _____
72
65
73
4
40
101.6
49
63.5
74
0
49
-12.7
74
0
49
12.7
74
0
49
-12.7
74
0
0
ENDTAB
0
TABLE
2
LAYER
5
2
330
0
100
AcDbSymbolTable
70
1
0
LAYER
5
10
330
2
100
AcDbSymbolTableRecord
100
AcDbLayerTableRecord
2
0
70
0
62
7
6
CONTINUOUS
370
-3
390
F
0
LAYER
5
44
330
2
100
AcDbSymbolTableRecord
100
AcDbLayerTableRecord
2
cut
70
0
62
1
6
CONTINUOUS
370
0
390
F
0
LAYER
5
45
330
2
100
AcDbSymbolTableRecord
100
AcDbLayerTableRecord
2
3x10_Female
70
0
62
1
6
CONTINUOUS
370
0
390
F
0
LAYER
5
46
330
2
100
AcDbSymbolTableRecord
100
AcDbLayerTableRecord
2
ArduinoUNO_Pins
70
0
62
4
6
CONTINUOUS
370
0
390
F
0
LAYER
5
47
330
2
100
AcDbSymbolTableRecord
100
AcDbLayerTableRecord
2
ArduinoUNO_Board
70
0
62
2
6
CONTINUOUS
370
0
390
F
0
LAYER
5
48
330
2
100
AcDbSymbolTableRecord
100
AcDbLayerTableRecord
2
ArduinoUNO_MountingHoles
70
0
62
1
6
CONTINUOUS
370
0
390
F
0
LAYER
5
49
330
2
100
AcDbSymbolTableRecord
100
AcDbLayerTableRecord
2
ArduinoUNO_Ports
70
0
62
3
6
CONTINUOUS
370
0
390
F
0
ENDTAB
0
TABLE
2
STYLE
5
3
330
0
100
AcDbSymbolTable
70
3
0
STYLE
5
4A
330
2
100
AcDbSymbolTableRecord
100
AcDbTextStyleTableRecord
2
STANDARD
70
0
40
0
41
1
50
0
71
0
42
1
3
STANDARD
4

0
STYLE
5
4B
330
2
100
AcDbSymbolTableRecord
100
AcDbTextStyleTableRecord
2
standard
70
0
40
0
41
1
50
0
71
0
42
1
3
standard
4

0
ENDTAB
0
TABLE
2
VIEW
5
6
330
0
100
AcDbSymbolTable
70
0
0
ENDTAB
0
TABLE
2
UCS
5
7
330
0
100
AcDbSymbolTable
70
0
0
ENDTAB
0
TABLE
2
APPID
5
9
330
0
100
AcDbSymbolTable
70
1
0
APPID
5
12
330
9
100
AcDbSymbolTableRecord
100
AcDbRegAppTableRecord
2
ACAD
70
0
0
ENDTAB
0
TABLE
2
DIMSTYLE
5
A
330
0
100
AcDbSymbolTable
70
1
100
AcDbDimStyleTable
71
1
0
DIMSTYLE
105
4C
330
A
100
AcDbSymbolTableRecord
100
AcDbDimStyleTableRecord
2
Standard
70
0
40
1
41
2.5
42
0.625
43
0.38
44
1.25
45
0
46
0
47
0
48
0
140
2.5
141
0.09
142
0
143
25.4
144
1
145
0
146
1
147
0.625
148
0
71
0
72
0
73
0
74
1
75
0
76
0
77
0
78
0
79
0
170
0
171
2
172
0
173
0
174
0
175
0
176
0
177
0
178
0
179
0
271
4
272
4
273
2
274
2
275
0
276
0
277
2
278
46
279
0
280
0
281
0
282
0
283
1
284
0
285
0
286
0
288
0
289
3
340
Standard
341

371
-2
372
-2
0
ENDTAB
0
TABLE
2
BLOCK_RECORD
5
1
330
0
100
AcDbSymbolTable
70
2
0
BLOCK_RECORD
5
1F
330
1
100
AcDbSymbolTableRecord
100
AcDbBlockTableRecord
2
*Model_Space
70
0
280
1
281
0
0
BLOCK_RECORD
5
1E
330
1
100
AcDbSymbolTableRecord
100
AcDbBlockTableRecord
2
*Paper_Space
70
0
280
1
281
0
0
BLOCK_RECORD
5
4D
330
1
100
AcDbSymbolTableRecord
100
AcDbBlockTableRecord
2
3x10_Female-3
70
0
280
1
281
0
0
BLOCK_RECORD
5
50
330
1
100
AcDbSymbolTableRecord
100
AcDbBlockTableRecord
2
3x10_Female-4
70
0
280
1
281
0
0
BLOCK_RECORD
5
53
330
1
100
AcDbSymbolTableRecord
100
AcDbBlockTableRecord
2
3x10_Female-9
70
0
280
1
281
0
0
BLOCK_RECORD
5
56
330
1
100
AcDbSymbolTableRecord
100
AcDbBlockTableRecord
2
3x10_Female-10
70
0
280
1
281
0
0
BLOCK_RECORD
5
59
330
1
100
AcDbSymbolTableRecord
100
AcDbBlockTableRecord
2
ArduinoUNO-0
70
0
280
1
281
0
0
ENDTAB
0
ENDSEC
0
SECTION
2
BLOCKS
0
BLOCK
5
20
330
1F
100
AcDbEntity
8
0
100
AcDbBlockBegin
2
*Model_Space
70
0
10
0
20
0
30
0
3
*Model_Space
1

0
ENDBLK
5
21
330
1F
100
AcDbEntity
8
0
100
AcDbBlockEnd
0
BLOCK
5
1C
330
1B
100
AcDbEntity
8
0
100
AcDbBlockBegin
2
*Paper_Space
70
0
10
0
20
0
30
0
3
*Paper_Space
1

0
ENDBLK
5
1D
330
1F
100
AcDbEntity
8
0
100
AcDbBlockEnd
0
BLOCK
5
4E
330
4D
100
AcDbEntity
8
0
100
AcDbBlockBegin
2
3x10_Female-3
70
0
10
0
20
0
3
3x10_Female-3
1

0
LINE
5
5C
100
AcDbEntity
8
3x10_Female
6
ByLayer
62
256
370
-1
100
AcDbLine
10
1.6
20
5.1
11
-1.6
21
5.1
0
LINE
5
5D
100
AcDbEntity
8
3x10_Female
6
ByLayer
62
256
370
-1
100
AcDbLine
10
-1.6
20
5.1
11
-1.6
21
-5.1
0
LINE
5
5E
100
AcDbEntity
8
3x10_Female
6
ByLayer
62
256
370
-1
100
AcDbLine
10
-1.6
20
-5.1
11
1.6
21
-5.1
0
LINE
5
5F
100
AcDbEntity
8
3x10_Female
6
ByLayer
62
256
370
-1
100
AcDbLine
10
1.6
20
-5.1
11
1.6
21
5.1
0
ENDBLK
5
4F
330
4D
100
AcDbEntity
8
0
100
AcDbBlockEnd
0
BLOCK
5
51
330
50
100
AcDbEntity
8
0
100
AcDbBlockBegin
2
3x10_Female-4
70
0
10
0
20
0
3
3x10_Female-4
1

0
LINE
5
60
100
AcDbEntity
8
3x10_Female
6
ByLayer
62
256
370
-1
100
AcDbLine
10
1.6
20
5.1
11
-1.6
21
5.1
0
LINE
5
61
100
AcDbEntity
8
3x10_Female
6
ByLayer
62
256
370
-1
100
AcDbLine
10
-1.6
20
5.1
11
-1.6
21
-5.1
0
LINE
5
62
100
AcDbEntity
8
3x10_Female
6
ByLayer
62
256
370
-1
100
AcDbLine
10
-1.6
20
-5.1
11
1.6
21
-5.1
0
LINE
5
63
100
AcDbEntity
8
3x10_Female
6
ByLayer
62
256
370
-1
100
AcDbLine
10
1.6
20
-5.1
11
1.6
21
5.1
0
ENDBLK
5
52
330
50
100
AcDbEntity
8
0
100
AcDbBlockEnd
0
BLOCK
5
54
330
53
100
AcDbEntity
8
0
100
AcDbBlockBegin
2
3x10_Female-9
70
0
10
0
20
0
3
3x10_Female-9
1

0
LINE
5
64
100
AcDbEntity
8
3x10_Female
6
ByLayer
62
256
370
-1
100
AcDbLine
10
1.6
20
5.1
11
-1.6
21
5.1
0
LINE
5
65
100
AcDbEntity
8
3x10_Female
6
ByLayer
62
256
370
-1
100
AcDbLine
10
-1.6
20
5.1
11
-1.6
21
-5.1
0
LINE
5
66
100
AcDbEntity
8
3x10_Female
6
ByLayer
62
256
370
-1
100
AcDbLine
10
-1.6
20
-5.1
11
1.6
21
-5.1
0
LINE
5
67
100
AcDbEntity
8
3x10_Female
6
ByLayer
62
256
370
-1
100
AcDbLine
10
1.6
20
-5.1
11
1.6
21
5.1
0
ENDBLK
5
55
330
53
100
AcDbEntity
8
0
100
AcDbBlockEnd
0
BLOCK
5
57
330
56
100
AcDbEntity
8
0
100
AcDbBlockBegin
2
3x10_Female-10
70
0
10
0
20
0
3
3x10_Female-10
1

0
LINE
5
68
100
AcDbEntity
8
3x10_Female
6
ByLayer
62
256
370
-1
100
AcDbLine
10
1.6
20
5.1
11
-1.6
21
5.1
0
LINE
5
69
100
AcDbEntity
8
3x10_Female
6
ByLayer
62
256
370
-1
100
AcDbLine
10
-1.6
20
5.1
11
-1.6
21
-5.1
0
LINE
5
6A
100
AcDbEntity
8
3x10_Female
6
ByLayer
62
256
370
-1
100
AcDbLine
10
-1.6
20
-5.1
11
1.6
21
-5.1
0
LINE
5
6B
100
AcDbEntity
8
3x10_Female
6
ByLayer
62
256
370
-1
100
AcDbLine
10
1.6
20
-5.1
11
1.6
21
5.1
0
ENDBLK
5
58
330
56
100
AcDbEntity
8
0
100
AcDbBlockEnd
0
BLOCK
5
5A
330
59
100
AcDbEntity
8
0
100
AcDbBlockBegin
2
ArduinoUNO-0
70
0
10
0
20
0
3
ArduinoUNO-0
1

0
LINE
5
6C
100
AcDbEntity
8
ArduinoUNO_Board
6
ByLayer
62
256
370
-1
100
AcDbLine
10
0
20
0
11
0
21
53.34
0
LINE
5
6D
100
AcDbEntity
8
ArduinoUNO_Board
6
ByLayer
62
256
370
-1
100
AcDbLine
10
0
20
0
11
66.04
21
0
0
LINE
5
6E
100
AcDbEntity
8
ArduinoUNO_Board
6
ByLayer
62
256
370
-1
100
AcDbLine
10
66.04
20
0
11
66.04
21
2.54
0
LINE
5
6F
100
AcDbEntity
8
ArduinoUNO_Board
6
ByLayer
62
256
370
-1
100
AcDbLine
10
66.04
20
2.54
11
68.58
21
5.08
0
LINE
5
70
100
AcDbEntity
8
ArduinoUNO_Board
6
ByLayer
62
256
370
-1
100
AcDbLine
10
68.58
20
5.08
11
68.58
21
37.846
0
LINE
5
71
100
AcDbEntity
8
ArduinoUNO_Board
6
ByLayer
62
256
370
-1
100
AcDbLine
10
66.04
20
40.386
11
68.58
21
37.846
0
LINE
5
72
100
AcDbEntity
8
ArduinoUNO_Board
6
ByLayer
62
256
370
-1
100
AcDbLine
10
66.04
20
40.386
11
66.04
21
51.816
0
LINE
5
73
100
AcDbEntity
8
ArduinoUNO_Board
6
ByLayer
62
256
370
-1
100
AcDbLine
10
0
20
53.34
11
64.516
21
53.34
0
LINE
5
74
100
AcDbEntity
8
ArduinoUNO_Board
6
ByLayer
62
256
370
-1
100
AcDbLine
10
64.516
20
53.34
11
66.04
21
51.816
0
CIRCLE
5
75
100
AcDbEntity
8
ArduinoUNO_MountingHoles
6
ByLayer
62
256
370
-1
100
AcDbCircle
10
66.04
20
35.56
40
1.5
0
CIRCLE
5
76
100
AcDbEntity
8
ArduinoUNO_MountingHoles
6
ByLayer
62
256
370
-1
100
AcDbCircle
10
66.04
20
7.62
40
1.5
0
CIRCLE
5
77
100
AcDbEntity
8
ArduinoUNO_MountingHoles
6
ByLayer
62
256
370
-1
100
AcDbCircle
10
13.97
20
2.54
40
1.5
0
CIRCLE
5
78
100
AcDbEntity
8
ArduinoUNO_MountingHoles
6
ByLayer
62
256
370
-1
100
AcDbCircle
10
15.24
20
50.8
40
1.5
0
CIRCLE
5
79
100
AcDbEntity
8
ArduinoUNO_Pins
6
ByLayer
62
256
370
-1
100
AcDbCircle
10
27.94
20
2.54
40
0.635
0
CIRCLE
5
7A
100
AcDbEntity
8
ArduinoUNO_Pins
6
ByLayer
62
256
370
-1
100
AcDbCircle
10
30.48
20
2.54
40
0.635
0
CIRCLE
5
7B
100
AcDbEntity
8
ArduinoUNO_Pins
6
ByLayer
62
256
370
-1
100
AcDbCircle
10
33.02
20
2.54
40
0.635
0
CIRCLE
5
7C
100
AcDbEntity
8
ArduinoUNO_Pins
6
ByLayer
62
256
370
-1
100
AcDbCircle
10
35.56
20
2.54
40
0.635
0
CIRCLE
5
7D
100
AcDbEntity
8
ArduinoUNO_Pins
6
ByLayer
62
256
370
-1
100
AcDbCircle
10
38.1
20
2.54
40
0.635
0
CIRCLE
5
7E
100
AcDbEntity
8
ArduinoUNO_Pins
6
ByLayer
62
256
370
-1
100
AcDbCircle
10
40.64
20
2.54
40
0.635
0
CIRCLE
5
7F
100
AcDbEntity
8
ArduinoUNO_Pins
6
ByLayer
62
256
370
-1
100
AcDbCircle
10
43.18
20
2.54
40
0.635
0
CIRCLE
5
80
100
AcDbEntity
8
ArduinoUNO_Pins
6
ByLayer
62
256
370
-1
100
AcDbCircle
10
45.72
20
2.54
40
0.635
0
CIRCLE
5
81
100
AcDbEntity
8
ArduinoUNO_Pins
6
ByLayer
62
256
370
-1
100
AcDbCircle
10
50.8
20
2.54
40
0.635
0
CIRCLE
5
82
100
AcDbEntity
8
ArduinoUNO_Pins
6
ByLayer
62
256
370
-1
100
AcDbCircle
10
53.34
20
2.54
40
0.635
0
CIRCLE
5
83
100
AcDbEntity
8
ArduinoUNO_Pins
6
ByLayer
62
256
370
-1
100
AcDbCircle
10
55.88
20
2.54
40
0.635
0
CIRCLE
5
84
100
AcDbEntity
8
ArduinoUNO_Pins
6
ByLayer
62
256
370
-1
100
AcDbCircle
10
58.42
20
2.54
40
0.635
0
CIRCLE
5
85
100
AcDbEntity
8
ArduinoUNO_Pins
6
ByLayer
62
256
370
-1
100
AcDbCircle
10
60.96
20
2.54
40
0.635
0
CIRCLE
5
86
100
AcDbEntity
8
ArduinoUNO_Pins
6
ByLayer
62
256
370
-1
100
AcDbCircle
10
63.5
20
2.54
40
0.635
0
CIRCLE
5
87
100
AcDbEntity
8
ArduinoUNO_Pins
6
ByLayer
62
256
370
-1
100
AcDbCircle
10
18.796
20
50.8
40
0.635
0
CIRCLE
5
88
100
AcDbEntity
8
ArduinoUNO_Pins
6
ByLayer
62
256
370
-1
100
AcDbCircle
10
21.336
20
50.8
40
0.635
0
CIRCLE
5
89
100
AcDbEntity
8
ArduinoUNO_Pins
6
ByLayer
62
256
370
-1
100
AcDbCircle
10
23.876
20
50.8
40
0.635
0
CIRCLE
5
8A
100
AcDbEntity
8
ArduinoUNO_Pins
6
ByLayer
62
256
370
-1
100
AcDbCircle
10
26.416
20
50.8
40
0.635
0
CIRCLE
5
8B
100
AcDbEntity
8
ArduinoUNO_Pins
6
ByLayer
62
256
370
-1
100
AcDbCircle
10
28.956
20
50.8
40
0.635
0
CIRCLE
5
8C
100
AcDbEntity
8
ArduinoUNO_Pins
6
ByLayer
62
256
370
-1
100
AcDbCircle
10
31.496
20
50.8
40
0.635
0
CIRCLE
5
8D
100
AcDbEntity
8
ArduinoUNO_Pins
6
ByLayer
62
256
370
-1
100
AcDbCircle
10
34.036
20
50.8
40
0.635
0
CIRCLE
5
8E
100
AcDbEntity
8
ArduinoUNO_Pins
6
ByLayer
62
256
370
-1
100
AcDbCircle
10
36.576
20
50.8
40
0.635
0
CIRCLE
5
8F
100
AcDbEntity
8
ArduinoUNO_Pins
6
ByLayer
62
256
370
-1
100
AcDbCircle
10
39.116
20
50.8
40
0.635
0
CIRCLE
5
90
100
AcDbEntity
8
ArduinoUNO_Pins
6
ByLayer
62
256
370
-1
100
AcDbCircle
10
41.656
20
50.8
40
0.635
0
CIRCLE
5
91
100
AcDbEntity
8
ArduinoUNO_Pins
6
ByLayer
62
256
370
-1
100
AcDbCircle
10
45.72
20
50.8
40
0.635
0
CIRCLE
5
92
100
AcDbEntity
8
ArduinoUNO_Pins
6
ByLayer
62
256
370
-1
100
AcDbCircle
10
48.26
20
50.8
40
0.635
0
CIRCLE
5
93
100
AcDbEntity
8
ArduinoUNO_Pins
6
ByLayer
62
256
370
-1
100
AcDbCircle
10
50.8
20
50.8
40
0.635
0
CIRCLE
5
94
100
AcDbEntity
8
ArduinoUNO_Pins
6
ByLayer
62
256
370
-1
100
AcDbCircle
10
53.34
20
50.8
40
0.635
0
CIRCLE
5
95
100
AcDbEntity
8
ArduinoUNO_Pins
6
ByLayer
62
256
370
-1
100
AcDbCircle
10
55.88
20
50.8
40
0.635
0
CIRCLE
5
96
100
AcDbEntity
8
ArduinoUNO_Pins
6
ByLayer
62
256
370
-1
100
AcDbCircle
10
58.42
20
50.8
40
0.635
0
CIRCLE
5
97
100
AcDbEntity
8
ArduinoUNO_Pins
6
ByLayer
62
256
370
-1
100
AcDbCircle
10
60.96
20
50.8
40
0.635
0
CIRCLE
5
98
100
AcDbEntity
8
ArduinoUNO_Pins
6
ByLayer
62
256
370
-1
100
AcDbCircle
10
63.5
20
50.8
40
0.635
0
CIRCLE
5
99
100
AcDbEntity
8
ArduinoUNO_Pins
6
ByLayer
62
256
370
-1
100
AcDbCircle
10
63.64
20
30.43
40
0.635
0
CIRCLE
5
9A
100
AcDbEntity
8
ArduinoUNO_Pins
6
ByLayer
62
256
370
-1
100
AcDbCircle
10
66.18
20
30.43
40
0.635
0
CIRCLE
5
9B
100
AcDbEntity
8
ArduinoUNO_Pins
6
ByLayer
62
256
370
-1
100
AcDbCircle
10
63.64
20
27.89
40
0.635
0
CIRCLE
5
9C
100
AcDbEntity
8
ArduinoUNO_Pins
6
ByLayer
62
256
370
-1
100
AcDbCircle
10
66.18
20
27.89
40
0.635
0
CIRCLE
5
9D
100
AcDbEntity
8
ArduinoUNO_Pins
6
ByLayer
62
256
370
-1
100
AcDbCircle
10
63.64
20
25.35
40
0.635
0
CIRCLE
5
9E
100
AcDbEntity
8
ArduinoUNO_Pins
6
ByLayer
62
256
370
-1
100
AcDbCircle
10
66.18
20
25.35
40
0.635
0
LINE
5
9F
100
AcDbEntity
8
ArduinoUNO_Ports
6
ByLayer
62
256
370
-1
100
AcDbLine
10
-1.905
20
2.54
11
-1.905
21
11.43
0
LINE
5
A0
100
AcDbEntity
8
ArduinoUNO_Ports
6
ByLayer
62
256
370
-1
100
AcDbLine
10
-1.905
20
11.43
11
11.43
21
11.43
0
LINE
5
A1
100
AcDbEntity
8
ArduinoUNO_Ports
6
ByLayer
62
256
370
-1
100
AcDbLine
10
-1.905
20
2.54
11
11.43
21
2.54
0
LINE
5
A2
100
AcDbEntity
8
ArduinoUNO_Ports
6
ByLayer
62
256
370
-1
100
AcDbLine
10
11.43
20
2.54
11
11.43
21
11.43
0
LINE
5
A3
100
AcDbEntity
8
ArduinoUNO_Ports
6
ByLayer
62
256
370
-1
100
AcDbLine
10
-6.35
20
32.385
11
-6.35
21
43.815
0
LINE
5
A4
100
AcDbEntity
8
ArduinoUNO_Ports
6
ByLayer
62
256
370
-1
100
AcDbLine
10
-6.35
20
43.815
11
9.525
21
43.815
0
LINE
5
A5
100
AcDbEntity
8
ArduinoUNO_Ports
6
ByLayer
62
256
370
-1
100
AcDbLine
10
-6.35
20
32.385
11
9.525
21
32.385
0
LINE
5
A6
100
AcDbEntity
8
ArduinoUNO_Ports
6
ByLayer
62
256
370
-1
100
AcDbLine
10
9.525
20
43.815
11
9.525
21
32.385
0
MTEXT
5
A7
100
AcDbEntity
8
ArduinoUNO_Pins
6
ByLayer
62
256
370
-1
100
AcDbMText
10
62.14
20
30.43
30
0
40
1
41
2.77777756578
71
6
72
1
1
MISO
7
standard
210
0
220
0
230
1
50
0
73
2
44
1
0
MTEXT
5
A8
100
AcDbEntity
8
ArduinoUNO_Pins
6
ByLayer
62
256
370
-1
100
AcDbMText
10
62.14
20
27.89
30
0
40
1
41
2.22222201022
71
6
72
1
1
SCK
7
standard
210
0
220
0
230
1
50
0
73
2
44
1
0
MTEXT
5
A9
100
AcDbEntity
8
ArduinoUNO_Pins
6
ByLayer
62
256
370
-1
100
AcDbMText
10
62.14
20
25.35
30
0
40
1
41
2.33333312133
71
6
72
1
1
RST
7
standard
210
0
220
0
230
1
50
0
73
2
44
1
0
MTEXT
5
AA
100
AcDbEntity
8
ArduinoUNO_Pins
6
ByLayer
62
256
370
-1
100
AcDbMText
10
67.68
20
25.35
30
0
40
1
41
2.33333333333
71
4
72
1
1
GND
7
standard
210
0
220
0
230
1
50
0
73
2
44
1
0
MTEXT
5
AB
100
AcDbEntity
8
ArduinoUNO_Pins
6
ByLayer
62
256
370
-1
100
AcDbMText
10
67.68
20
27.89
30
0
40
1
41
2.77777756578
71
4
72
1
1
MOSI
7
standard
210
0
220
0
230
1
50
0
73
2
44
1
0
MTEXT
5
AC
100
AcDbEntity
8
ArduinoUNO_Pins
6
ByLayer
62
256
370
-1
100
AcDbMText
10
43.18
20
4.04
30
0
40
1
41
2.33333333333
71
4
72
1
1
GND
7
standard
210
0
220
0
230
1
50
90
73
2
44
1
0
MTEXT
5
AD
100
AcDbEntity
8
ArduinoUNO_Pins
6
ByLayer
62
256
370
-1
100
AcDbMText
10
40.64
20
4.04
30
0
40
1
41
2.33333333333
71
4
72
1
1
GND
7
standard
210
0
220
0
230
1
50
90
73
2
44
1
0
MTEXT
5
AE
100
AcDbEntity
8
ArduinoUNO_Pins
6
ByLayer
62
256
370
-1
100
AcDbMText
10
38.1
20
4.04
30
0
40
1
41
1.44444444444
71
4
72
1
1
5V
7
standard
210
0
220
0
230
1
50
90
73
2
44
1
0
MTEXT
5
AF
100
AcDbEntity
8
ArduinoUNO_Pins
6
ByLayer
62
256
370
-1
100
AcDbMText
10
45.72
20
4.04
30
0
40
1
41
1.77777777778
71
4
72
1
1
Vin
7
standard
210
0
220
0
230
1
50
90
73
2
44
1
0
MTEXT
5
B0
100
AcDbEntity
8
ArduinoUNO_Pins
6
ByLayer
62
256
370
-1
100
AcDbMText
10
35.56
20
4.04
30
0
40
1
41
2.55555555556
71
4
72
1
1
3.3V
7
standard
210
0
220
0
230
1
50
90
73
2
44
1
0
MTEXT
5
B1
100
AcDbEntity
8
ArduinoUNO_Pins
6
ByLayer
62
256
370
-1
100
AcDbMText
10
33.02
20
4.04
30
0
40
1
41
2.33333312133
71
4
72
1
1
RST
7
standard
210
0
220
0
230
1
50
90
73
2
44
1
0
MTEXT
5
B2
100
AcDbEntity
8
ArduinoUNO_Pins
6
ByLayer
62
256
370
-1
100
AcDbMText
10
30.48
20
4.04
30
0
40
1
41
3
71
4
72
1
1
IOref
7
standard
210
0
220
0
230
1
50
90
73
2
44
1
0
MTEXT
5
B3
100
AcDbEntity
8
ArduinoUNO_Pins
6
ByLayer
62
256
370
-1
100
AcDbMText
10
58.42
20
49.3
30
0
40
1
41
2.55555555556
71
6
72
1
1
INT0
7
standard
210
0
220
0
230
1
50
90
73
2
44
1
0
MTEXT
5
B4
100
AcDbEntity
8
ArduinoUNO_Pins
6
ByLayer
62
256
370
-1
100
AcDbMText
10
60.96
20
49.3
30
0
40
1
41
1.33333333333
71
6
72
1
1
Tx
7
standard
210
0
220
0
230
1
50
90
73
2
44
1
0
MTEXT
5
B5
100
AcDbEntity
8
ArduinoUNO_Pins
6
ByLayer
62
256
370
-1
100
AcDbMText
10
63.5
20
49.3
30
0
40
1
41
1.33333333333
71
6
72
1
1
Rx
7
standard
210
0
220
0
230
1
50
90
73
2
44
1
0
MTEXT
5
B6
100
AcDbEntity
8
ArduinoUNO_Pins
6
ByLayer
62
256
370
-1
100
AcDbMText
10
55.88
20
49.3
30
0
40
1
41
6.22222222222
71
6
72
1
1
INT1/PWM
7
standard
210
0
220
0
230
1
50
90
73
2
44
1
0
MTEXT
5
B7
100
AcDbEntity
8
ArduinoUNO_Pins
6
ByLayer
62
256
370
-1
100
AcDbMText
10
50.8
20
49.3
30
0
40
1
41
2.77777777778
71
6
72
1
1
PWM
7
standard
210
0
220
0
230
1
50
90
73
2
44
1
0
MTEXT
5
B8
100
AcDbEntity
8
ArduinoUNO_Pins
6
ByLayer
62
256
370
-1
100
AcDbMText
10
48.26
20
49.3
30
0
40
1
41
2.77777777778
71
6
72
1
1
PWM
7
standard
210
0
220
0
230
1
50
90
73
2
44
1
0
MTEXT
5
B9
100
AcDbEntity
8
ArduinoUNO_Pins
6
ByLayer
62
256
370
-1
100
AcDbMText
10
39.116
20
49.3
30
0
40
1
41
2.77777777778
71
6
72
1
1
PWM
7
standard
210
0
220
0
230
1
50
90
73
2
44
1
0
MTEXT
5
BA
100
AcDbEntity
8
ArduinoUNO_Pins
6
ByLayer
62
256
370
-1
100
AcDbMText
10
36.576
20
49.3
30
0
40
1
41
5.33333290933
71
6
72
1
1
SS/PWM
7
standard
210
0
220
0
230
1
50
90
73
2
44
1
0
MTEXT
5
BB
100
AcDbEntity
8
ArduinoUNO_Pins
6
ByLayer
62
256
370
-1
100
AcDbMText
10
34.036
20
49.3
30
0
40
1
41
6.66666645466
71
6
72
1
1
MOSI/PWM
7
standard
210
0
220
0
230
1
50
90
73
2
44
1
0
MTEXT
5
BC
100
AcDbEntity
8
ArduinoUNO_Pins
6
ByLayer
62
256
370
-1
100
AcDbMText
10
31.496
20
49.3
30
0
40
1
41
2.77777756578
71
6
72
1
1
MISO
7
standard
210
0
220
0
230
1
50
90
73
2
44
1
0
MTEXT
5
BD
100
AcDbEntity
8
ArduinoUNO_Pins
6
ByLayer
62
256
370
-1
100
AcDbMText
10
28.956
20
49.3
30
0
40
1
41
5.44444423244
71
6
72
1
1
SCK/LED
7
standard
210
0
220
0
230
1
50
90
73
2
44
1
0
MTEXT
5
BE
100
AcDbEntity
8
ArduinoUNO_Pins
6
ByLayer
62
256
370
-1
100
AcDbMText
10
26.416
20
49.3
30
0
40
1
41
2.33333333333
71
6
72
1
1
GND
7
standard
210
0
220
0
230
1
50
90
73
2
44
1
0
MTEXT
5
BF
100
AcDbEntity
8
ArduinoUNO_Pins
6
ByLayer
62
256
370
-1
100
AcDbMText
10
23.876
20
49.3
30
0
40
1
41
2.77777777778
71
6
72
1
1
Aref
7
standard
210
0
220
0
230
1
50
90
73
2
44
1
0
MTEXT
5
C0
100
AcDbEntity
8
ArduinoUNO_Pins
6
ByLayer
62
256
370
-1
100
AcDbMText
10
63.5
20
4.04
30
0
40
1
41
2.44444423244
71
4
72
1
1
SDA
7
standard
210
0
220
0
230
1
50
90
73
2
44
1
0
MTEXT
5
C1
100
AcDbEntity
8
ArduinoUNO_Pins
6
ByLayer
62
256
370
-1
100
AcDbMText
10
60.96
20
4.04
30
0
40
1
41
2.11111089911
71
4
72
1
1
SCL
7
standard
210
0
220
0
230
1
50
90
73
2
44
1
0
MTEXT
5
C2
100
AcDbEntity
8
ArduinoUNO_Pins
6
ByLayer
62
256
370
-1
100
AcDbMText
10
67.68
20
30.43
30
0
40
1
41
2.44444444444
71
4
72
1
1
VTG
7
STANDARD
210
0
220
0
230
1
50
0
73
2
44
1
0
ENDBLK
5
5B
330
59
100
AcDbEntity
8
0
100
AcDbBlockEnd
0
ENDSEC
0
SECTION
2
ENTITIES
0
ARC
5
C3
100
AcDbEntity
8
cut
6
ByLayer
62
256
370
-1
100
AcDbCircle
10
6
20
105.120495
40
2
100
AcDbArc
50
90
51
180
0
LINE
5
C4
100
AcDbEntity
8
cut
6
ByLayer
62
256
370
-1
100
AcDbLine
10
6
20
107.120495
11
69.05533
21
107.120495
0
ARC
5
C5
100
AcDbEntity
8
cut
6
ByLayer
62
256
370
-1
100
AcDbCircle
10
69.05533
20
105.120495
40
2
100
AcDbArc
50
0
51
90
0
ARC
5
C6
100
AcDbEntity
8
cut
6
ByLayer
62
256
370
-1
100
AcDbCircle
10
6
20
3
40
2
100
AcDbArc
50
180
51
270
0
LINE
5
C7
100
AcDbEntity
8
cut
6
ByLayer
62
256
370
-1
100
AcDbLine
10
69.05533
20
1
11
6
21
1
0
ARC
5
C8
100
AcDbEntity
8
cut
6
ByLayer
62
256
370
-1
100
AcDbCircle
10
69.05533
20
3
40
2
100
AcDbArc
50
270
51
0
0
LINE
5
C9
100
AcDbEntity
8
cut
6
ByLayer
62
256
370
-1
100
AcDbLine
10
71
20
99
11
74
21
99
0
LINE
5
CA
100
AcDbEntity
8
cut
6
ByLayer
62
256
370
-1
100
AcDbLine
10
74
20
99
11
74
21
89
0
LINE
5
CB
100
AcDbEntity
8
cut
6
ByLayer
62
256
370
-1
100
AcDbLine
10
74
20
89
11
71
21
89
0
LINE
5
CC
100
AcDbEntity
8
cut
6
ByLayer
62
256
370
-1
100
AcDbLine
10
71
20
38
11
74
21
38
0
LINE
5
CD
100
AcDbEntity
8
cut
6
ByLayer
62
256
370
-1
100
AcDbLine
10
74
20
38
11
74
21
28
0
LINE
5
CE
100
AcDbEntity
8
cut
6
ByLayer
62
256
370
-1
100
AcDbLine
10
74
20
28
11
71
21
28
0
LINE
5
CF
100
AcDbEntity
8
cut
6
ByLayer
62
256
370
-1
100
AcDbLine
10
4
20
28
11
1
21
28
0
LINE
5
D0
100
AcDbEntity
8
cut
6
ByLayer
62
256
370
-1
100
AcDbLine
10
1
20
28
11
1
21
38
0
LINE
5
D1
100
AcDbEntity
8
cut
6
ByLayer
62
256
370
-1
100
AcDbLine
10
1
20
38
11
4
21
38
0
LINE
5
D2
100
AcDbEntity
8
cut
6
ByLayer
62
256
370
-1
100
AcDbLine
10
4
20
89
11
1
21
89
0
LINE
5
D3
100
AcDbEntity
8
cut
6
ByLayer
62
256
370
-1
100
AcDbLine
10
1
20
89
11
1
21
99
0
LINE
5
D4
100
AcDbEntity
8
cut
6
ByLayer
62
256
370
-1
100
AcDbLine
10
1
20
99
11
4
21
99
0
LINE
5
D5
100
AcDbEntity
8
cut
6
ByLayer
62
256
370
-1
100
AcDbLine
10
4
20
99
11
4
21
105.120495
0
LINE
5
D6
100
AcDbEntity
8
cut
6
ByLayer
62
256
370
-1
100
AcDbLine
10
71
20
99
11
71.05533
21
105.120495
0
LINE
5
D7
100
AcDbEntity
8
cut
6
ByLayer
62
256
370
-1
100
AcDbLine
10
61
20
65.25
11
61
21
61.75
0
LINE
5
D8
100
AcDbEntity
8
cut
6
ByLayer
62
256
370
-1
100
AcDbLine
10
63
20
60.5
11
65.5
21
60.5
0
LINE
5
D9
100
AcDbEntity
8
cut
6
ByLayer
62
256
370
-1
100
AcDbLine
10
63
20
66.5
11
65.5
21
66.5
0
LINE
5
DA
100
AcDbEntity
8
cut
6
ByLayer
62
256
370
-1
100
AcDbLine
10
65.5
20
61.75
11
71
21
61.75
0
LINE
5
DB
100
AcDbEntity
8
cut
6
ByLayer
62
256
370
-1
100
AcDbLine
10
61
20
61.75
11
63
21
61.75
0
LINE
5
DC
100
AcDbEntity
8
cut
6
ByLayer
62
256
370
-1
100
AcDbLine
10
63
20
65.25
11
61
21
65.25
0
LINE
5
DD
100
AcDbEntity
8
cut
6
ByLayer
62
256
370
-1
100
AcDbLine
10
71
20
65.25
11
65.5
21
65.25
0
LINE
5
DE
100
AcDbEntity
8
cut
6
ByLayer
62
256
370
-1
100
AcDbLine
10
65.5
20
60.5
11
65.5
21
61.75
0
LINE
5
DF
100
AcDbEntity
8
cut
6
ByLayer
62
256
370
-1
100
AcDbLine
10
65.5
20
65.25
11
65.5
21
66.5
0
LINE
5
E0
100
AcDbEntity
8
cut
6
ByLayer
62
256
370
-1
100
AcDbLine
10
63
20
66.5
11
63
21
65.25
0
LINE
5
E1
100
AcDbEntity
8
cut
6
ByLayer
62
256
370
-1
100
AcDbLine
10
63
20
61.75
11
63
21
60.5
0
LINE
5
E2
100
AcDbEntity
8
cut
6
ByLayer
62
256
370
-1
100
AcDbLine
10
14
20
61.75
11
14
21
65.25
0
LINE
5
E3
100
AcDbEntity
8
cut
6
ByLayer
62
256
370
-1
100
AcDbLine
10
12
20
66.5
11
9.5
21
66.5
0
LINE
5
E4
100
AcDbEntity
8
cut
6
ByLayer
62
256
370
-1
100
AcDbLine
10
12
20
60.5
11
9.5
21
60.5
0
LINE
5
E5
100
AcDbEntity
8
cut
6
ByLayer
62
256
370
-1
100
AcDbLine
10
9.5
20
65.25
11
4
21
65.25
0
LINE
5
E6
100
AcDbEntity
8
cut
6
ByLayer
62
256
370
-1
100
AcDbLine
10
14
20
65.25
11
12
21
65.25
0
LINE
5
E7
100
AcDbEntity
8
cut
6
ByLayer
62
256
370
-1
100
AcDbLine
10
12
20
61.75
11
14
21
61.75
0
LINE
5
E8
100
AcDbEntity
8
cut
6
ByLayer
62
256
370
-1
100
AcDbLine
10
4
20
61.75
11
9.5
21
61.75
0
LINE
5
E9
100
AcDbEntity
8
cut
6
ByLayer
62
256
370
-1
100
AcDbLine
10
9.5
20
66.5
11
9.5
21
65.25
0
LINE
5
EA
100
AcDbEntity
8
cut
6
ByLayer
62
256
370
-1
100
AcDbLine
10
9.5
20
61.75
11
9.5
21
60.5
0
LINE
5
EB
100
AcDbEntity
8
cut
6
ByLayer
62
256
370
-1
100
AcDbLine
10
12
20
60.5
11
12
21
61.75
0
LINE
5
EC
100
AcDbEntity
8
cut
6
ByLayer
62
256
370
-1
100
AcDbLine
10
12
20
65.25
11
12
21
66.5
0
LINE
5
ED
100
AcDbEntity
8
cut
6
ByLayer
62
256
370
-1
100
AcDbLine
10
4
20
89
11
4
21
65.25
0
LINE
5
EE
100
AcDbEntity
8
cut
6
ByLayer
62
256
370
-1
100
AcDbLine
10
4
20
61.75
11
4
21
38
0
LINE
5
EF
100
AcDbEntity
8
cut
6
ByLayer
62
256
370
-1
100
AcDbLine
10
4
20
28
11
4
21
3
0
LINE
5
F0
100
AcDbEntity
8
cut
6
ByLayer
62
256
370
-1
100
AcDbLine
10
71.05533
20
3
11
71
21
28
0
LINE
5
F1
100
AcDbEntity
8
cut
6
ByLayer
62
256
370
-1
100
AcDbLine
10
71
20
38
11
71
21
61.75
0
LINE
5
F2
100
AcDbEntity
8
cut
6
ByLayer
62
256
370
-1
100
AcDbLine
10
71
20
65.25
11
71
21
89
0
ARC
5
F3
100
AcDbEntity
8
cut
6
ByLayer
62
256
370
-1
100
AcDbCircle
10
7.078681
20
113
40
2
100
AcDbArc
50
180
51
270
0
LINE
5
F4
100
AcDbEntity
8
cut
6
ByLayer
62
256
370
-1
100
AcDbLine
10
5.078681
20
113
11
5.078681
21
195.260203354
0
ARC
5
F5
100
AcDbEntity
8
cut
6
ByLayer
62
256
370
-1
100
AcDbCircle
10
10.078681
20
195.260203354
40
5
100
AcDbArc
50
114.45052786
51
180
0
ARC
5
F6
100
AcDbEntity
8
cut
6
ByLayer
62
256
370
-1
100
AcDbCircle
10
65
20
223.895801178
40
2
100
AcDbArc
50
360
51
115.159544564
0
LINE
5
F7
100
AcDbEntity
8
cut
6
ByLayer
62
256
370
-1
100
AcDbLine
10
67
20
223.895801178
11
67
21
113
0
LINE
5
F8
100
AcDbEntity
8
cut
6
ByLayer
62
256
370
-1
100
AcDbLine
10
65
20
111
11
7.078681
21
111
0
ARC
5
F9
100
AcDbEntity
8
cut
6
ByLayer
62
256
370
-1
100
AcDbCircle
10
65
20
113
40
2
100
AcDbArc
50
270
51
360
0
INSERT
5
FA
100
AcDbEntity
8
cut
6
ByLayer
62
256
370
-1
100
AcDbBlockReference
2
3x10_Female-3
10
14.016953
20
124.232867
30
0
41
-1
42
1
43
0
50
0
70
1
71
1
44
0
45
0
0
INSERT
5
FB
100
AcDbEntity
8
cut
6
ByLayer
62
256
370
-1
100
AcDbBlockReference
2
3x10_Female-4
10
14.016953
20
185.232867
30
0
41
-1
42
1
43
0
50
0
70
1
71
1
44
0
45
0
0
CIRCLE
5
FC
100
AcDbEntity
8
cut
6
ByLayer
62
256
370
-1
100
AcDbCircle
10
14.016953
20
154.732867
40
1.51
0
INSERT
5
FD
100
AcDbEntity
8
cut
6
ByLayer
62
256
370
-1
100
AcDbBlockReference
2
3x10_Female-3
10
57.750625
20
124.207613
30
0
41
-1
42
1
43
0
50
0
70
1
71
1
44
0
45
0
0
INSERT
5
FE
100
AcDbEntity
8
cut
6
ByLayer
62
256
370
-1
100
AcDbBlockReference
2
3x10_Female-4
10
57.750625
20
185.207613
30
0
41
-1
42
1
43
0
50
0
70
1
71
1
44
0
45
0
0
CIRCLE
5
FF
100
AcDbEntity
8
cut
6
ByLayer
62
256
370
-1
100
AcDbCircle
10
57.750625
20
154.707613
40
1.51
0
LINE
5
100
100
AcDbEntity
8
cut
6
ByLayer
62
256
370
-1
100
AcDbLine
10
49.5667124352
20
218.841297309
11
48.29885765
21
221.56022067
0
LINE
5
101
100
AcDbEntity
8
cut
6
ByLayer
62
256
370
-1
100
AcDbLine
10
48.29885765
20
221.56022067
11
39.2357797796
21
217.334038052
0
LINE
5
102
100
AcDbEntity
8
cut
6
ByLayer
62
256
370
-1
100
AcDbLine
10
39.2357797796
20
217.334038052
11
40.5036345648
21
214.615114691
0
LINE
5
103
100
AcDbEntity
8
cut
6
ByLayer
62
256
370
-1
100
AcDbLine
10
64.1497193906
20
225.706056101
11
49.5667124352
21
218.841297309
0
LINE
5
104
100
AcDbEntity
8
cut
6
ByLayer
62
256
370
-1
100
AcDbLine
10
40.5036345648
20
214.615114691
11
8.00914409732
21
199.81179835
0
ARC
5
105
100
AcDbEntity
8
cut
6
ByLayer
62
256
370
-1
100
AcDbCircle
10
130.921319
20
113
40
2
100
AcDbArc
50
270
51
0
0
LINE
5
106
100
AcDbEntity
8
cut
6
ByLayer
62
256
370
-1
100
AcDbLine
10
132.921319
20
113
11
132.921319
21
195.260203354
0
ARC
5
107
100
AcDbEntity
8
cut
6
ByLayer
62
256
370
-1
100
AcDbCircle
10
127.921319
20
195.260203354
40
5
100
AcDbArc
50
0
51
65.5494721398
0
ARC
5
108
100
AcDbEntity
8
cut
6
ByLayer
62
256
370
-1
100
AcDbCircle
10
73
20
223.895801178
40
2
100
AcDbArc
50
64.8404554355
51
180
0
LINE
5
109
100
AcDbEntity
8
cut
6
ByLayer
62
256
370
-1
100
AcDbLine
10
71
20
223.895801178
11
71
21
113
0
LINE
5
10A
100
AcDbEntity
8
cut
6
ByLayer
62
256
370
-1
100
AcDbLine
10
73
20
111
11
130.921319
21
111
0
ARC
5
10B
100
AcDbEntity
8
cut
6
ByLayer
62
256
370
-1
100
AcDbCircle
10
73
20
113
40
2
100
AcDbArc
50
180
51
270
0
INSERT
5
10C
100
AcDbEntity
8
cut
6
ByLayer
62
256
370
-1
100
AcDbBlockReference
2
3x10_Female-3
10
123.983047
20
124.232867
30
0
41
1
42
1
43
0
50
0
70
1
71
1
44
0
45
0
0
INSERT
5
10D
100
AcDbEntity
8
cut
6
ByLayer
62
256
370
-1
100
AcDbBlockReference
2
3x10_Female-4
10
123.983047
20
185.232867
30
0
41
1
42
1
43
0
50
0
70
1
71
1
44
0
45
0
0
CIRCLE
5
10E
100
AcDbEntity
8
cut
6
ByLayer
62
256
370
-1
100
AcDbCircle
10
123.983047
20
154.732867
40
1.51
0
INSERT
5
10F
100
AcDbEntity
8
cut
6
ByLayer
62
256
370
-1
100
AcDbBlockReference
2
3x10_Female-3
10
80.249375
20
124.207613
30
0
41
1
42
1
43
0
50
0
70
1
71
1
44
0
45
0
0
INSERT
5
110
100
AcDbEntity
8
cut
6
ByLayer
62
256
370
-1
100
AcDbBlockReference
2
3x10_Female-4
10
80.249375
20
185.207613
30
0
41
1
42
1
43
0
50
0
70
1
71
1
44
0
45
0
0
CIRCLE
5
111
100
AcDbEntity
8
cut
6
ByLayer
62
256
370
-1
100
AcDbCircle
10
80.249375
20
154.707613
40
1.51
0
LINE
5
112
100
AcDbEntity
8
cut
6
ByLayer
62
256
370
-1
100
AcDbLine
10
88.4332875648
20
218.841297309
11
89.70114235
21
221.56022067
0
LINE
5
113
100
AcDbEntity
8
cut
6
ByLayer
62
256
370
-1
100
AcDbLine
10
89.70114235
20
221.56022067
11
98.7642202204
21
217.334038052
0
LINE
5
114
100
AcDbEntity
8
cut
6
ByLayer
62
256
370
-1
100
AcDbLine
10
98.7642202204
20
217.334038052
11
97.4963654352
21
214.615114691
0
LINE
5
115
100
AcDbEntity
8
cut
6
ByLayer
62
256
370
-1
100
AcDbLine
10
73.8502806094
20
225.706056101
11
88.4332875648
21
218.841297309
0
LINE
5
116
100
AcDbEntity
8
cut
6
ByLayer
62
256
370
-1
100
AcDbLine
10
97.4963654352
20
214.615114691
11
129.990855903
21
199.81179835
0
LINE
5
117
100
AcDbEntity
8
cut
6
ByLayer
62
256
370
-1
100
AcDbLine
10
185
20
111
11
185
21
111
0
ARC
5
118
100
AcDbEntity
8
cut
6
ByLayer
62
256
370
-1
100
AcDbCircle
10
137.994228
20
113
40
2
100
AcDbArc
50
180
51
270
0
LINE
5
119
100
AcDbEntity
8
cut
6
ByLayer
62
256
370
-1
100
AcDbLine
10
135.994228
20
218.999992
11
135.994228
21
113
0
ARC
5
11A
100
AcDbEntity
8
cut
6
ByLayer
62
256
370
-1
100
AcDbCircle
10
137.994228
20
218.999992
40
2
100
AcDbArc
50
90
51
180
0
LINE
5
11B
100
AcDbEntity
8
cut
6
ByLayer
62
256
370
-1
100
AcDbLine
10
183
20
220.999992
11
137.994228
21
220.999992
0
ARC
5
11C
100
AcDbEntity
8
cut
6
ByLayer
62
256
370
-1
100
AcDbCircle
10
183
20
218.999992
40
2
100
AcDbArc
50
360
51
90
0
LINE
5
11D
100
AcDbEntity
8
cut
6
ByLayer
62
256
370
-1
100
AcDbLine
10
185
20
113
11
185
21
218.999992
0
LINE
5
11E
100
AcDbEntity
8
cut
6
ByLayer
62
256
370
-1
100
AcDbLine
10
137.994228
20
111
11
183
21
111
0
ARC
5
11F
100
AcDbEntity
8
cut
6
ByLayer
62
256
370
-1
100
AcDbCircle
10
183
20
113
40
2
100
AcDbArc
50
270
51
360
0
INSERT
5
120
100
AcDbEntity
8
cut
6
ByLayer
62
256
370
-1
100
AcDbBlockReference
2
3x10_Female-9
10
160.469091
20
130.732022
30
0
41
1
42
1
43
0
50
90
70
1
71
1
44
0
45
0
0
INSERT
5
121
100
AcDbEntity
8
cut
6
ByLayer
62
256
370
-1
100
AcDbBlockReference
2
3x10_Female-10
10
160.469091
20
201.232022
30
0
41
1
42
1
43
0
50
90
70
1
71
1
44
0
45
0
0
ARC
5
122
100
AcDbEntity
8
cut
6
ByLayer
62
256
370
-1
100
AcDbCircle
10
79
20
92.488889
40
2
100
AcDbArc
50
90
51
180
0
LINE
5
123
100
AcDbEntity
8
cut
6
ByLayer
62
256
370
-1
100
AcDbLine
10
79
20
94.488889
11
142.05547
21
94.488889
0
ARC
5
124
100
AcDbEntity
8
cut
6
ByLayer
62
256
370
-1
100
AcDbCircle
10
142.05547
20
92.488889
40
2
100
AcDbArc
50
0
51
90
0
ARC
5
125
100
AcDbEntity
8
cut
6
ByLayer
62
256
370
-1
100
AcDbCircle
10
142.05547
20
9
40
2
100
AcDbArc
50
270
51
0
0
LINE
5
126
100
AcDbEntity
8
cut
6
ByLayer
62
256
370
-1
100
AcDbLine
10
142.05547
20
7
11
79
21
7
0
ARC
5
127
100
AcDbEntity
8
cut
6
ByLayer
62
256
370
-1
100
AcDbCircle
10
79
20
9
40
2
100
AcDbArc
50
180
51
270
0
LINE
5
128
100
AcDbEntity
8
cut
6
ByLayer
62
256
370
-1
100
AcDbLine
10
144
20
25
11
147
21
25
0
LINE
5
129
100
AcDbEntity
8
cut
6
ByLayer
62
256
370
-1
100
AcDbLine
10
147
20
25
11
147
21
15
0
LINE
5
12A
100
AcDbEntity
8
cut
6
ByLayer
62
256
370
-1
100
AcDbLine
10
147
20
15
11
144
21
15
0
LINE
5
12B
100
AcDbEntity
8
cut
6
ByLayer
62
256
370
-1
100
AcDbLine
10
77
20
15
11
74
21
15
0
LINE
5
12C
100
AcDbEntity
8
cut
6
ByLayer
62
256
370
-1
100
AcDbLine
10
74
20
15
11
74
21
25
0
LINE
5
12D
100
AcDbEntity
8
cut
6
ByLayer
62
256
370
-1
100
AcDbLine
10
74
20
25
11
77
21
25
0
LINE
5
12E
100
AcDbEntity
8
cut
6
ByLayer
62
256
370
-1
100
AcDbLine
10
77
20
76
11
74
21
76
0
LINE
5
12F
100
AcDbEntity
8
cut
6
ByLayer
62
256
370
-1
100
AcDbLine
10
74
20
76
11
74
21
86
0
LINE
5
130
100
AcDbEntity
8
cut
6
ByLayer
62
256
370
-1
100
AcDbLine
10
74
20
86
11
77
21
86
0
LINE
5
131
100
AcDbEntity
8
cut
6
ByLayer
62
256
370
-1
100
AcDbLine
10
144
20
86
11
147
21
86
0
LINE
5
132
100
AcDbEntity
8
cut
6
ByLayer
62
256
370
-1
100
AcDbLine
10
147
20
86
11
147
21
76
0
LINE
5
133
100
AcDbEntity
8
cut
6
ByLayer
62
256
370
-1
100
AcDbLine
10
147
20
76
11
144
21
76
0
LINE
5
134
100
AcDbEntity
8
cut
6
ByLayer
62
256
370
-1
100
AcDbLine
10
77
20
92.488889
11
77
21
86
0
LINE
5
135
100
AcDbEntity
8
cut
6
ByLayer
62
256
370
-1
100
AcDbLine
10
77
20
15
11
77
21
9
0
LINE
5
136
100
AcDbEntity
8
cut
6
ByLayer
62
256
370
-1
100
AcDbLine
10
144.05547
20
9
11
144
21
15
0
LINE
5
137
100
AcDbEntity
8
cut
6
ByLayer
62
256
370
-1
100
AcDbLine
10
144
20
86
11
144.05547
21
92.488889
0
LINE
5
138
100
AcDbEntity
8
cut
6
ByLayer
62
256
370
-1
100
AcDbLine
10
134
20
52.25
11
134
21
48.75
0
LINE
5
139
100
AcDbEntity
8
cut
6
ByLayer
62
256
370
-1
100
AcDbLine
10
136
20
47.5
11
138.5
21
47.5
0
LINE
5
13A
100
AcDbEntity
8
cut
6
ByLayer
62
256
370
-1
100
AcDbLine
10
136
20
53.5
11
138.5
21
53.5
0
LINE
5
13B
100
AcDbEntity
8
cut
6
ByLayer
62
256
370
-1
100
AcDbLine
10
138.5
20
48.75
11
144
21
48.75
0
LINE
5
13C
100
AcDbEntity
8
cut
6
ByLayer
62
256
370
-1
100
AcDbLine
10
134
20
48.75
11
136
21
48.75
0
LINE
5
13D
100
AcDbEntity
8
cut
6
ByLayer
62
256
370
-1
100
AcDbLine
10
136
20
52.25
11
134
21
52.25
0
LINE
5
13E
100
AcDbEntity
8
cut
6
ByLayer
62
256
370
-1
100
AcDbLine
10
144
20
52.25
11
138.5
21
52.25
0
LINE
5
13F
100
AcDbEntity
8
cut
6
ByLayer
62
256
370
-1
100
AcDbLine
10
138.5
20
47.5
11
138.5
21
48.75
0
LINE
5
140
100
AcDbEntity
8
cut
6
ByLayer
62
256
370
-1
100
AcDbLine
10
138.5
20
52.25
11
138.5
21
53.5
0
LINE
5
141
100
AcDbEntity
8
cut
6
ByLayer
62
256
370
-1
100
AcDbLine
10
136
20
53.5
11
136
21
52.25
0
LINE
5
142
100
AcDbEntity
8
cut
6
ByLayer
62
256
370
-1
100
AcDbLine
10
136
20
48.75
11
136
21
47.5
0
LINE
5
143
100
AcDbEntity
8
cut
6
ByLayer
62
256
370
-1
100
AcDbLine
10
87
20
48.75
11
87
21
52.25
0
LINE
5
144
100
AcDbEntity
8
cut
6
ByLayer
62
256
370
-1
100
AcDbLine
10
85
20
53.5
11
82.5
21
53.5
0
LINE
5
145
100
AcDbEntity
8
cut
6
ByLayer
62
256
370
-1
100
AcDbLine
10
85
20
47.5
11
82.5
21
47.5
0
LINE
5
146
100
AcDbEntity
8
cut
6
ByLayer
62
256
370
-1
100
AcDbLine
10
82.5
20
52.25
11
77
21
52.25
0
LINE
5
147
100
AcDbEntity
8
cut
6
ByLayer
62
256
370
-1
100
AcDbLine
10
87
20
52.25
11
85
21
52.25
0
LINE
5
148
100
AcDbEntity
8
cut
6
ByLayer
62
256
370
-1
100
AcDbLine
10
85
20
48.75
11
87
21
48.75
0
LINE
5
149
100
AcDbEntity
8
cut
6
ByLayer
62
256
370
-1
100
AcDbLine
10
77
20
48.75
11
82.5
21
48.75
0
LINE
5
14A
100
AcDbEntity
8
cut
6
ByLayer
62
256
370
-1
100
AcDbLine
10
82.5
20
53.5
11
82.5
21
52.25
0
LINE
5
14B
100
AcDbEntity
8
cut
6
ByLayer
62
256
370
-1
100
AcDbLine
10
82.5
20
48.75
11
82.5
21
47.5
0
LINE
5
14C
100
AcDbEntity
8
cut
6
ByLayer
62
256
370
-1
100
AcDbLine
10
85
20
47.5
11
85
21
48.75
0
LINE
5
14D
100
AcDbEntity
8
cut
6
ByLayer
62
256
370
-1
100
AcDbLine
10
85
20
52.25
11
85
21
53.5
0
LINE
5
14E
100
AcDbEntity
8
cut
6
ByLayer
62
256
370
-1
100
AcDbLine
10
77
20
76
11
77
21
52.25
0
LINE
5
14F
100
AcDbEntity
8
cut
6
ByLayer
62
256
370
-1
100
AcDbLine
10
77
20
48.75
11
77
21
25
0
LINE
5
150
100
AcDbEntity
8
cut
6
ByLayer
62
256
370
-1
100
AcDbLine
10
144
20
25
11
144
21
48.75
0
LINE
5
151
100
AcDbEntity
8
cut
6
ByLayer
62
256
370
-1
100
AcDbLine
10
144
20
76
11
144
21
52.25
0
INSERT
5
152
100
AcDbEntity
8
0
6
ByLayer
62
256
370
-1
100
AcDbBlockReference
2
ArduinoUNO-0
10
137
20
16
30
0
41
1
42
1
43
0
50
90
70
1
71
1
44
0
45
0
0
CIRCLE
5
153
100
AcDbEntity
8
cut
6
ByLayer
62
256
370
-1
100
AcDbCircle
10
26
20
14.2
40
1.51
0
CIRCLE
5
154
100
AcDbEntity
8
cut
6
ByLayer
62
256
370
-1
100
AcDbCircle
10
49
20
14.2
40
1.51
0
LINE
5
155
100
AcDbEntity
8
cut
6
ByLayer
62
256
370
-1
100
AcDbLine
10
55
20
172
11
34
21
172
0
LINE
5
156
100
AcDbEntity
8
cut
6
ByLayer
62
256
370
-1
100
AcDbLine
10
34
20
172
11
34
21
130
0
LINE
5
157
100
AcDbEntity
8
cut
6
ByLayer
62
256
370
-1
100
AcDbLine
10
55
20
172
11
55
21
130
0
LINE
5
158
100
AcDbEntity
8
cut
6
ByLayer
62
256
370
-1
100
AcDbLine
10
34
20
130
11
55
21
130
0
LINE
5
159
100
AcDbEntity
8
cut
6
ByLayer
62
256
370
-1
100
AcDbLine
10
104
20
172
11
83
21
172
0
LINE
5
15A
100
AcDbEntity
8
cut
6
ByLayer
62
256
370
-1
100
AcDbLine
10
83
20
172
11
83
21
130
0
LINE
5
15B
100
AcDbEntity
8
cut
6
ByLayer
62
256
370
-1
100
AcDbLine
10
104
20
172
11
104
21
130
0
LINE
5
15C
100
AcDbEntity
8
cut
6
ByLayer
62
256
370
-1
100
AcDbLine
10
83
20
130
11
104
21
130
0
ARC
5
15D
100
AcDbEntity
8
cut
6
ByLayer
62
256
370
-1
100
AcDbCircle
10
16
20
95
40
1
100
AcDbArc
50
90
51
180
0
LINE
5
15E
100
AcDbEntity
8
cut
6
ByLayer
62
256
370
-1
100
AcDbLine
10
15
20
95
11
15
21
94
0
ARC
5
15F
100
AcDbEntity
8
cut
6
ByLayer
62
256
370
-1
100
AcDbCircle
10
16
20
94
40
1
100
AcDbArc
50
180
51
270
0
LINE
5
160
100
AcDbEntity
8
cut
6
ByLayer
62
256
370
-1
100
AcDbLine
10
24
20
96
11
16
21
96
0
ARC
5
161
100
AcDbEntity
8
cut
6
ByLayer
62
256
370
-1
100
AcDbCircle
10
24
20
95
40
1
100
AcDbArc
50
0
51
90
0
LINE
5
162
100
AcDbEntity
8
cut
6
ByLayer
62
256
370
-1
100
AcDbLine
10
25
20
94
11
25
21
95
0
LINE
5
163
100
AcDbEntity
8
cut
6
ByLayer
62
256
370
-1
100
AcDbLine
10
16
20
93
11
24
21
93
0
ARC
5
164
100
AcDbEntity
8
cut
6
ByLayer
62
256
370
-1
100
AcDbCircle
10
24
20
94
40
1
100
AcDbArc
50
270
51
0
0
ARC
5
165
100
AcDbEntity
8
cut
6
ByLayer
62
256
370
-1
100
AcDbCircle
10
51
20
95
40
1
100
AcDbArc
50
90
51
180
0
LINE
5
166
100
AcDbEntity
8
cut
6
ByLayer
62
256
370
-1
100
AcDbLine
10
50
20
94
11
50
21
95
0
ARC
5
167
100
AcDbEntity
8
cut
6
ByLayer
62
256
370
-1
100
AcDbCircle
10
51
20
94
40
1
100
AcDbArc
50
180
51
270
0
LINE
5
168
100
AcDbEntity
8
cut
6
ByLayer
62
256
370
-1
100
AcDbLine
10
59
20
93
11
51
21
93
0
ARC
5
169
100
AcDbEntity
8
cut
6
ByLayer
62
256
370
-1
100
AcDbCircle
10
59
20
94
40
1
100
AcDbArc
50
270
51
0
0
LINE
5
16A
100
AcDbEntity
8
cut
6
ByLayer
62
256
370
-1
100
AcDbLine
10
60
20
95
11
60
21
94
0
LINE
5
16B
100
AcDbEntity
8
cut
6
ByLayer
62
256
370
-1
100
AcDbLine
10
51
20
96
11
59
21
96
0
ARC
5
16C
100
AcDbEntity
8
cut
6
ByLayer
62
256
370
-1
100
AcDbCircle
10
59
20
95
40
1
100
AcDbArc
50
0
51
90
0
ARC
5
16D
100
AcDbEntity
8
cut
6
ByLayer
62
256
370
-1
100
AcDbCircle
10
51
20
40
40
1
100
AcDbArc
50
90
51
180
0
LINE
5
16E
100
AcDbEntity
8
cut
6
ByLayer
62
256
370
-1
100
AcDbLine
10
59
20
41
11
51
21
41
0
ARC
5
16F
100
AcDbEntity
8
cut
6
ByLayer
62
256
370
-1
100
AcDbCircle
10
59
20
40
40
1
100
AcDbArc
50
0
51
90
0
LINE
5
170
100
AcDbEntity
8
cut
6
ByLayer
62
256
370
-1
100
AcDbLine
10
60
20
39
11
60
21
40
0
ARC
5
171
100
AcDbEntity
8
cut
6
ByLayer
62
256
370
-1
100
AcDbCircle
10
59
20
39
40
1
100
AcDbArc
50
270
51
0
0
LINE
5
172
100
AcDbEntity
8
cut
6
ByLayer
62
256
370
-1
100
AcDbLine
10
51
20
38
11
59
21
38
0
LINE
5
173
100
AcDbEntity
8
cut
6
ByLayer
62
256
370
-1
100
AcDbLine
10
50
20
40
11
50
21
39
0
ARC
5
174
100
AcDbEntity
8
cut
6
ByLayer
62
256
370
-1
100
AcDbCircle
10
51
20
39
40
1
100
AcDbArc
50
180
51
270
0
ARC
5
175
100
AcDbEntity
8
cut
6
ByLayer
62
256
370
-1
100
AcDbCircle
10
16
20
40
40
1
100
AcDbArc
50
90
51
180
0
LINE
5
176
100
AcDbEntity
8
cut
6
ByLayer
62
256
370
-1
100
AcDbLine
10
16
20
41
11
24
21
41
0
ARC
5
177
100
AcDbEntity
8
cut
6
ByLayer
62
256
370
-1
100
AcDbCircle
10
24
20
40
40
1
100
AcDbArc
50
0
51
90
0
LINE
5
178
100
AcDbEntity
8
cut
6
ByLayer
62
256
370
-1
100
AcDbLine
10
15
20
39
11
15
21
40
0
ARC
5
179
100
AcDbEntity
8
cut
6
ByLayer
62
256
370
-1
100
AcDbCircle
10
16
20
39
40
1
100
AcDbArc
50
180
51
270
0
LINE
5
17A
100
AcDbEntity
8
cut
6
ByLayer
62
256
370
-1
100
AcDbLine
10
24
20
38
11
16
21
38
0
LINE
5
17B
100
AcDbEntity
8
cut
6
ByLayer
62
256
370
-1
100
AcDbLine
10
25
20
40
11
25
21
39
0
ARC
5
17C
100
AcDbEntity
8
cut
6
ByLayer
62
256
370
-1
100
AcDbCircle
10
24
20
39
40
1
100
AcDbArc
50
270
51
0
0
ENDSEC
0
SECTION
2
OBJECTS
0
DICTIONARY
5
C
330
0
100
AcDbDictionary
281
1
3
ACAD_GROUP
350
D
0
DICTIONARY
5
D
330
C
100
AcDbDictionary
281
1
0
ENDSEC
0
EOF
